<svg width="1763" height="512" viewBox="0 0 1763 512" fill="none" xmlns="http://www.w3.org/2000/svg">
<g clip-path="url(#clip0_405_2)">
<path d="M1097.27 311.309L1108.99 291.009L1191.03 338.376L1179.31 358.675L1097.27 311.309Z" fill="#FAF9F9"/>
<path d="M1204.36 345.431L1290.04 197.029C1308.46 165.13 1297.43 123.963 1265.53 105.545C1233.63 87.1282 1192.46 98.159 1174.05 130.058L1143.91 182.255L1143.59 182.067L1143.59 165.612C1143.59 152.72 1133.04 142.172 1120.15 142.172C1107.25 142.172 1096.71 152.72 1096.71 165.612L1098.91 285.189L1204.36 345.431Z" fill="#FFC107"/>
<path d="M1140.34 145.421C1145.3 150.387 1148.21 156.834 1148.66 163.742L1169.59 127.486C1189.47 93.05 1233.67 81.2091 1268.1 101.091C1302.54 120.973 1314.38 165.163 1294.5 199.6L1208.82 348.002C1207.4 350.462 1204.25 351.305 1201.79 349.885L1193.19 344.919L1183.76 361.247C1183.08 362.428 1181.96 363.29 1180.64 363.643C1179.32 363.996 1177.92 363.811 1176.74 363.129L1094.7 315.763C1093.47 315.054 1092.64 313.911 1092.3 312.64C1091.96 311.369 1092.1 309.967 1092.81 308.738L1101.96 292.892L1096.34 289.643C1095.14 288.953 1094.29 287.822 1093.94 286.52C1093.83 286.122 1093.77 285.707 1093.77 285.283L1091.56 165.706C1091.56 165.674 1091.56 165.643 1091.56 165.612C1091.56 149.851 1104.39 137.029 1120.15 137.028C1127.75 137.03 1134.93 140.01 1140.34 145.421ZM1101.85 165.569L1104 282.188L1116.14 289.2C1118.6 290.62 1119.44 293.766 1118.02 296.226C1116.6 298.685 1113.46 299.529 1111 298.108L1110.87 298.035L1104.29 309.426L1177.43 351.65L1184.28 339.775L1140.8 314.67C1139.57 313.96 1138.74 312.818 1138.4 311.547C1138.06 310.276 1138.21 308.874 1138.92 307.645C1140.34 305.185 1143.48 304.342 1145.94 305.762L1202.48 338.405L1285.59 194.458C1302.64 164.933 1292.48 127.045 1262.96 109.999C1233.43 92.9531 1195.55 103.105 1178.5 132.63L1148.73 184.197L1148.73 207.805C1148.73 210.644 1146.43 212.947 1143.58 212.948C1140.74 212.947 1138.44 210.647 1138.44 207.804L1138.44 165.612C1138.44 160.751 1136.53 156.163 1133.06 152.695C1129.59 149.226 1125.01 147.316 1120.14 147.316C1110.07 147.316 1101.87 155.5 1101.85 165.569Z" fill="#FFC107"/>
<path d="M1130.3 296.728C1132.76 298.142 1133.61 301.286 1132.2 303.749C1130.78 306.212 1127.64 307.063 1125.18 305.649L1125.11 305.612C1123.88 304.903 1123.05 303.758 1122.7 302.483C1122.36 301.215 1122.51 299.819 1123.21 298.591C1124.63 296.127 1127.77 295.277 1130.23 296.691L1130.3 296.728Z" fill="white"/>
<path d="M1248.55 127.681C1248.21 126.41 1248.36 125.008 1249.07 123.778C1250.49 121.318 1253.63 120.475 1256.09 121.896L1256.12 121.912C1258.58 123.332 1259.41 126.469 1257.99 128.929C1256.57 131.389 1253.41 132.224 1250.95 130.804C1249.72 130.094 1248.89 128.952 1248.55 127.681Z" fill="white"/>
<path d="M1263.33 141.759C1261.63 139.489 1262.08 136.265 1264.35 134.557C1266.62 132.849 1269.84 133.304 1271.55 135.573C1284.18 152.347 1285.58 174.878 1275.14 192.975C1273.72 195.435 1270.57 196.278 1268.11 194.858C1266.88 194.147 1266.06 193.006 1265.71 191.735C1265.37 190.464 1265.52 189.062 1266.23 187.832C1274.61 173.314 1273.47 155.23 1263.33 141.759Z" fill="white"/>
</g>
<path d="M151.174 294.51C134.95 294.51 120.364 290.844 107.416 283.512C94.624 276.18 84.562 266.04 77.23 253.092C70.054 240.144 66.466 225.48 66.466 209.1C66.466 192.72 70.054 178.056 77.23 165.108C84.562 152.16 94.624 142.02 107.416 134.688C120.364 127.356 134.95 123.69 151.174 123.69C165.37 123.69 178.318 126.732 190.018 132.816C201.874 138.744 211.39 147.09 218.566 157.854C225.898 168.618 230.11 180.708 231.202 194.124H193.294C191.89 187.26 189.16 181.332 185.104 176.34C181.204 171.192 176.29 167.214 170.362 164.406C164.59 161.598 158.038 160.194 150.706 160.194C141.814 160.194 133.858 162.3 126.838 166.512C119.974 170.724 114.592 176.574 110.692 184.062C106.792 191.394 104.842 199.74 104.842 209.1C104.842 218.46 106.792 226.884 110.692 234.372C114.592 241.704 119.974 247.476 126.838 251.688C133.858 255.744 141.814 257.772 150.706 257.772C158.038 257.772 164.59 256.446 170.362 253.794C176.29 250.986 181.204 247.086 185.104 242.094C189.16 236.946 191.89 230.94 193.294 224.076H231.202C230.11 237.492 225.898 249.582 218.566 260.346C211.39 271.11 201.874 279.534 190.018 285.618C178.318 291.546 165.37 294.51 151.174 294.51ZM259.743 291V124.86H292.269V214.482C294.453 201.534 299.289 191.16 306.777 183.36C314.421 175.56 323.703 171.66 334.623 171.66C343.359 171.66 351.003 173.844 357.555 178.212C364.107 182.58 369.177 188.82 372.765 196.932C376.353 204.888 378.147 214.17 378.147 224.778V291H345.387V229.926C345.231 221.502 342.735 214.716 337.899 209.568C333.063 204.42 326.745 201.846 318.945 201.846C313.953 201.846 309.429 203.094 305.373 205.59C301.317 208.086 298.119 211.44 295.779 215.652C293.439 219.864 292.269 224.622 292.269 229.926V291H259.743ZM414.219 291V174H446.745V291H414.219ZM429.429 160.662L410.007 116.67H451.425L431.769 160.662H429.429ZM508.459 293.808C498.007 293.808 489.583 291.312 483.187 286.32C476.791 281.172 473.593 273.918 473.593 264.558C473.593 255.51 476.557 248.49 482.485 243.498C488.569 238.506 495.589 235.074 503.545 233.202C511.657 231.33 520.783 229.926 530.923 228.99C538.879 228.522 545.041 227.508 549.409 225.948C553.933 224.388 556.195 221.424 556.195 217.056C556.195 210.816 554.011 206.058 549.643 202.782C545.431 199.35 540.283 197.634 534.199 197.634C527.023 197.634 521.173 199.584 516.649 203.484C512.125 207.384 509.473 212.844 508.693 219.864H478.507C478.975 209.724 481.783 201.066 486.931 193.89C492.079 186.558 498.787 181.02 507.055 177.276C515.479 173.532 524.683 171.66 534.667 171.66C544.651 171.66 553.543 173.532 561.343 177.276C569.143 181.02 575.227 186.48 579.595 193.656C583.963 200.832 586.147 209.412 586.147 219.396V262.452H599.719V291H556.429V248.88C553.777 261.984 548.317 272.748 540.049 281.172C531.937 289.596 521.407 293.808 508.459 293.808ZM524.605 268.536C530.221 268.536 535.447 266.898 540.283 263.622C545.119 260.346 548.941 256.134 551.749 250.986C554.713 245.682 556.195 240.066 556.195 234.138L556.429 226.884C554.557 228.6 552.217 229.848 549.409 230.628C546.757 231.408 543.013 232.188 538.177 232.968C537.865 232.968 537.553 233.046 537.241 233.202C536.929 233.202 536.695 233.202 536.539 233.202C526.711 234.138 519.301 236.166 514.309 239.286C509.317 242.25 506.821 246.774 506.821 252.858C506.821 258.162 508.459 262.14 511.735 264.792C515.011 267.288 519.301 268.536 524.605 268.536ZM626.51 291V174H659.036V214.482C661.22 201.534 666.056 191.16 673.544 183.36C681.188 175.56 690.47 171.66 701.39 171.66C710.126 171.66 717.77 173.844 724.322 178.212C730.874 182.58 735.944 188.82 739.532 196.932C743.12 204.888 744.914 214.17 744.914 224.778V291H712.154V229.926C711.998 221.502 709.502 214.716 704.666 209.568C699.83 204.42 693.512 201.846 685.712 201.846C680.72 201.846 676.196 203.094 672.14 205.59C668.084 208.086 664.886 211.44 662.546 215.652C660.206 219.864 659.036 224.622 659.036 229.926V291H626.51ZM833.942 293.34C818.654 293.34 807.344 290.064 800.012 283.512C792.68 276.804 789.014 267.054 789.014 254.262V203.25H762.572V174H778.016C782.852 174 786.518 172.752 789.014 170.256C791.51 167.604 792.758 163.938 792.758 159.258V145.92H821.54V174H863.66V203.25H821.54V246.072C821.54 252.156 823.1 256.524 826.22 259.176C829.34 261.828 834.41 263.154 841.43 263.154C847.67 263.154 855.08 262.452 863.66 261.048V290.298C858.98 291.078 853.91 291.78 848.45 292.404C842.99 293.028 838.154 293.34 833.942 293.34ZM892.045 291V174H924.571V291H892.045ZM907.255 160.662L887.833 116.67H929.251L909.595 160.662H907.255ZM962.885 291V124.86H995.411V291H962.885ZM1033.73 291V174H1066.25V291H1033.73ZM1048.94 160.662L1029.51 116.67H1070.93L1051.28 160.662H1048.94ZM1157.45 293.34C1145.44 293.34 1134.59 290.688 1124.92 285.384C1115.41 280.08 1107.92 272.826 1102.46 263.622C1097 254.418 1094.27 244.044 1094.27 232.5C1094.27 220.956 1097 210.582 1102.46 201.378C1107.92 192.174 1115.41 184.92 1124.92 179.616C1134.59 174.312 1145.44 171.66 1157.45 171.66C1168.06 171.66 1177.65 173.844 1186.23 178.212C1194.97 182.424 1201.99 188.352 1207.29 195.996C1212.75 203.484 1215.95 211.83 1216.88 221.034H1184.59C1182.88 215.106 1179.6 210.27 1174.76 206.526C1169.93 202.782 1164.16 200.91 1157.45 200.91C1151.52 200.91 1146.22 202.314 1141.54 205.122C1137.01 207.774 1133.42 211.518 1130.77 216.354C1128.12 221.19 1126.79 226.572 1126.79 232.5C1126.79 238.428 1128.12 243.81 1130.77 248.646C1133.42 253.326 1137.01 257.07 1141.54 259.878C1146.22 262.53 1151.52 263.856 1157.45 263.856C1164.16 263.856 1169.93 261.984 1174.76 258.24C1179.6 254.496 1182.88 249.66 1184.59 243.732H1216.88C1215.95 253.092 1212.75 261.594 1207.29 269.238C1201.99 276.726 1194.97 282.654 1186.23 287.022C1177.65 291.234 1168.06 293.34 1157.45 293.34ZM1244.42 291V174H1276.94V291H1244.42ZM1259.63 160.662L1240.2 116.67H1281.62L1261.97 160.662H1259.63ZM1356.44 293.34C1347.7 293.34 1340.06 291.156 1333.51 286.788C1326.96 282.42 1321.89 276.258 1318.3 268.302C1314.71 260.19 1312.92 250.83 1312.92 240.222V174H1345.68L1345.91 234.84C1345.91 243.42 1348.33 250.284 1353.16 255.432C1358 260.58 1364.32 263.154 1372.12 263.154C1377.11 263.154 1381.63 261.906 1385.69 259.41C1389.75 256.914 1392.94 253.56 1395.28 249.348C1397.62 245.136 1398.79 240.3 1398.79 234.84V174H1431.32V291H1398.79V250.518C1396.61 263.466 1391.7 273.84 1384.05 281.64C1376.56 289.44 1367.36 293.34 1356.44 293.34ZM1519.57 294.276C1501.32 294.276 1486.42 290.142 1474.88 281.874C1463.49 273.606 1457.25 262.062 1456.16 247.242H1489.86C1490.95 253.95 1494.07 259.02 1499.22 262.452C1504.36 265.884 1510.76 267.6 1518.4 267.6C1522.62 267.6 1526.59 267.054 1530.34 265.962C1534.08 264.87 1537.12 263.154 1539.46 260.814C1541.8 258.318 1542.97 255.276 1542.97 251.688C1542.97 248.1 1541.88 245.292 1539.7 243.264C1537.67 241.08 1534.55 239.364 1530.34 238.116C1526.28 236.868 1520.74 235.698 1513.72 234.606C1512.79 234.45 1511.77 234.294 1510.68 234.138C1509.75 233.982 1508.73 233.826 1507.64 233.67C1496.56 232.266 1487.59 230.55 1480.73 228.522C1474.02 226.338 1468.95 223.452 1465.52 219.864C1462.24 216.12 1460.61 211.284 1460.61 205.356C1460.61 198.18 1462.87 192.018 1467.39 186.87C1471.92 181.566 1478.16 177.588 1486.11 174.936C1494.22 172.128 1503.43 170.724 1513.72 170.724C1531.66 170.724 1545.94 174.858 1556.55 183.126C1567.31 191.394 1573.16 203.094 1574.1 218.226H1541.8C1541.34 211.362 1538.68 206.214 1533.85 202.782C1529.01 199.35 1523.08 197.634 1516.06 197.634C1509.82 197.634 1504.44 199.116 1499.92 202.08C1495.39 204.888 1493.13 208.944 1493.13 214.248C1493.13 217.212 1494.07 219.786 1495.94 221.97C1497.97 224.154 1501.01 226.026 1505.07 227.586C1509.12 228.99 1514.43 230.16 1520.98 231.096C1522.07 231.252 1523.16 231.408 1524.25 231.564C1525.5 231.72 1526.75 231.876 1528 232.032C1528.62 232.188 1529.25 232.266 1529.87 232.266C1530.49 232.266 1531.12 232.344 1531.74 232.5C1541.57 233.748 1549.6 235.542 1555.84 237.882C1562.08 240.222 1566.69 243.264 1569.65 247.008C1572.61 250.596 1574.1 255.198 1574.1 260.814C1574.1 267.834 1571.76 273.84 1567.08 278.832C1562.4 283.824 1555.92 287.646 1547.65 290.298C1539.39 292.95 1530.03 294.276 1519.57 294.276Z" fill="black"/>
<path d="M519.34 371.693V376.967H483.842V371.693H519.34ZM485.062 339.906V411H479.447V339.906H485.062ZM523.979 339.906V411H518.363V339.906H523.979ZM549.748 387.318V381.85C549.748 377.846 550.204 374.314 551.115 371.254C552.059 368.194 553.378 365.622 555.07 363.539C556.796 361.423 558.846 359.844 561.223 358.803C563.599 357.729 566.203 357.191 569.035 357.191C571.932 357.191 574.553 357.729 576.896 358.803C579.273 359.844 581.307 361.423 583 363.539C584.725 365.622 586.06 368.194 587.004 371.254C587.948 374.314 588.42 377.846 588.42 381.85V387.318C588.42 391.322 587.948 394.87 587.004 397.963C586.06 401.023 584.725 403.594 583 405.678C581.307 407.761 579.273 409.34 576.896 410.414C574.553 411.488 571.949 412.025 569.084 412.025C566.219 412.025 563.599 411.488 561.223 410.414C558.879 409.34 556.844 407.761 555.119 405.678C553.394 403.562 552.059 400.974 551.115 397.914C550.204 394.854 549.748 391.322 549.748 387.318ZM555.217 381.85V387.318C555.217 390.346 555.51 393.064 556.096 395.473C556.714 397.882 557.626 399.932 558.83 401.625C560.035 403.318 561.483 404.62 563.176 405.531C564.901 406.443 566.87 406.898 569.084 406.898C571.428 406.898 573.462 406.443 575.188 405.531C576.945 404.62 578.394 403.318 579.533 401.625C580.705 399.932 581.568 397.882 582.121 395.473C582.707 393.064 583 390.346 583 387.318V381.85C583 378.887 582.691 376.202 582.072 373.793C581.454 371.384 580.526 369.333 579.289 367.641C578.085 365.915 576.62 364.597 574.895 363.686C573.169 362.742 571.216 362.27 569.035 362.27C566.887 362.27 564.95 362.742 563.225 363.686C561.499 364.597 560.035 365.915 558.83 367.641C557.658 369.333 556.763 371.384 556.145 373.793C555.526 376.202 555.217 378.887 555.217 381.85ZM618.145 369.008V411H612.676V358.168H617.9L618.145 369.008ZM617.119 381.312L614.531 379.896C614.661 376.771 615.133 373.842 615.947 371.107C616.794 368.373 617.949 365.964 619.414 363.881C620.911 361.765 622.734 360.121 624.883 358.949C627.031 357.777 629.473 357.191 632.207 357.191C634.355 357.191 636.292 357.549 638.018 358.266C639.775 358.949 641.289 360.04 642.559 361.537C643.828 363.002 644.805 364.923 645.488 367.299C646.172 369.643 646.514 372.491 646.514 375.844V411H641.094V376.039C641.094 372.556 640.638 369.822 639.727 367.836C638.848 365.85 637.611 364.451 636.016 363.637C634.453 362.79 632.614 362.367 630.498 362.367C628.057 362.367 625.99 362.969 624.297 364.174C622.604 365.378 621.237 366.941 620.195 368.861C619.186 370.782 618.438 372.849 617.949 375.062C617.461 377.243 617.184 379.327 617.119 381.312ZM646.465 376.723L642.803 376.918C642.933 374.346 643.421 371.889 644.268 369.545C645.114 367.169 646.286 365.069 647.783 363.246C649.281 361.391 651.071 359.926 653.154 358.852C655.27 357.745 657.663 357.191 660.332 357.191C662.643 357.191 664.71 357.566 666.533 358.314C668.356 359.031 669.886 360.17 671.123 361.732C672.393 363.295 673.353 365.297 674.004 367.738C674.655 370.18 674.98 373.109 674.98 376.527V411H669.512V376.479C669.512 372.8 669.056 369.936 668.145 367.885C667.266 365.834 666.029 364.402 664.434 363.588C662.871 362.742 661.048 362.335 658.965 362.367C656.914 362.367 655.107 362.823 653.545 363.734C652.015 364.646 650.729 365.818 649.688 367.25C648.678 368.65 647.897 370.196 647.344 371.889C646.823 373.549 646.53 375.16 646.465 376.723ZM718.621 412.025C715.691 412.025 712.99 411.553 710.516 410.609C708.074 409.633 705.958 408.168 704.168 406.215C702.41 404.229 701.043 401.739 700.066 398.744C699.09 395.717 698.602 392.152 698.602 388.051V381.947C698.602 377.585 699.122 373.842 700.164 370.717C701.206 367.559 702.605 364.988 704.363 363.002C706.154 360.984 708.188 359.519 710.467 358.607C712.745 357.663 715.154 357.191 717.693 357.191C720.59 357.191 723.13 357.663 725.311 358.607C727.524 359.551 729.38 360.984 730.877 362.904C732.374 364.825 733.497 367.25 734.246 370.18C734.995 373.077 735.369 376.511 735.369 380.482V385.023H701.873V379.945H729.949V378.578C729.884 375.128 729.396 372.198 728.484 369.789C727.605 367.348 726.271 365.492 724.48 364.223C722.723 362.921 720.477 362.27 717.742 362.27C715.724 362.27 713.868 362.644 712.176 363.393C710.483 364.109 709.018 365.248 707.781 366.811C706.577 368.373 705.649 370.408 704.998 372.914C704.38 375.421 704.07 378.432 704.07 381.947V388.051C704.07 391.273 704.412 394.073 705.096 396.449C705.812 398.793 706.821 400.746 708.123 402.309C709.425 403.839 710.988 404.994 712.811 405.775C714.633 406.524 716.652 406.898 718.865 406.898C721.6 406.898 723.992 406.443 726.043 405.531C728.094 404.587 729.917 403.171 731.512 401.283L734.393 404.896C733.416 406.166 732.212 407.354 730.779 408.461C729.347 409.535 727.638 410.398 725.652 411.049C723.667 411.7 721.323 412.025 718.621 412.025ZM764.215 369.008V411H758.746V358.168H763.971L764.215 369.008ZM763.189 381.312L760.602 379.896C760.732 376.771 761.204 373.842 762.018 371.107C762.864 368.373 764.02 365.964 765.484 363.881C766.982 361.765 768.805 360.121 770.953 358.949C773.102 357.777 775.543 357.191 778.277 357.191C780.426 357.191 782.363 357.549 784.088 358.266C785.846 358.949 787.359 360.04 788.629 361.537C789.898 363.002 790.875 364.923 791.559 367.299C792.242 369.643 792.584 372.491 792.584 375.844V411H787.164V376.039C787.164 372.556 786.708 369.822 785.797 367.836C784.918 365.85 783.681 364.451 782.086 363.637C780.523 362.79 778.684 362.367 776.568 362.367C774.127 362.367 772.06 362.969 770.367 364.174C768.674 365.378 767.307 366.941 766.266 368.861C765.257 370.782 764.508 372.849 764.02 375.062C763.531 377.243 763.255 379.327 763.189 381.312ZM792.535 376.723L788.873 376.918C789.003 374.346 789.492 371.889 790.338 369.545C791.184 367.169 792.356 365.069 793.854 363.246C795.351 361.391 797.141 359.926 799.225 358.852C801.34 357.745 803.733 357.191 806.402 357.191C808.714 357.191 810.781 357.566 812.604 358.314C814.426 359.031 815.956 360.17 817.193 361.732C818.463 363.295 819.423 365.297 820.074 367.738C820.725 370.18 821.051 373.109 821.051 376.527V411H815.582V376.479C815.582 372.8 815.126 369.936 814.215 367.885C813.336 365.834 812.099 364.402 810.504 363.588C808.941 362.742 807.118 362.335 805.035 362.367C802.984 362.367 801.178 362.823 799.615 363.734C798.085 364.646 796.799 365.818 795.758 367.25C794.749 368.65 793.967 370.196 793.414 371.889C792.893 373.549 792.6 375.16 792.535 376.723ZM874.115 401.527V372.768C874.115 370.294 873.692 368.292 872.846 366.762C871.999 365.199 870.762 364.06 869.135 363.344C867.507 362.628 865.505 362.27 863.129 362.27C860.883 362.27 858.881 362.725 857.123 363.637C855.398 364.516 854.047 365.753 853.07 367.348C852.126 368.91 851.654 370.717 851.654 372.768L846.234 372.719C846.234 370.701 846.641 368.764 847.455 366.908C848.269 365.02 849.424 363.36 850.922 361.928C852.419 360.463 854.21 359.307 856.293 358.461C858.409 357.615 860.753 357.191 863.324 357.191C866.482 357.191 869.281 357.696 871.723 358.705C874.164 359.714 876.068 361.374 877.436 363.686C878.835 365.997 879.535 369.057 879.535 372.865V399.867C879.535 401.723 879.649 403.627 879.877 405.58C880.137 407.533 880.479 409.128 880.902 410.365V411H875.141C874.783 409.861 874.522 408.412 874.359 406.654C874.197 404.864 874.115 403.155 874.115 401.527ZM875.238 380.141L875.385 384.779H866.01C863.471 384.779 861.241 385.056 859.32 385.609C857.4 386.163 855.788 386.96 854.486 388.002C853.217 389.044 852.257 390.281 851.605 391.713C850.954 393.145 850.629 394.773 850.629 396.596C850.629 398.939 851.003 400.86 851.752 402.357C852.501 403.822 853.591 404.913 855.023 405.629C856.488 406.312 858.23 406.654 860.248 406.654C862.917 406.654 865.261 406.133 867.279 405.092C869.33 404.018 871.007 402.602 872.309 400.844C873.611 399.053 874.457 397.165 874.848 395.18L876.312 398.5C875.987 399.997 875.385 401.527 874.506 403.09C873.627 404.652 872.488 406.117 871.088 407.484C869.688 408.819 868.028 409.91 866.107 410.756C864.187 411.602 862.022 412.025 859.613 412.025C856.716 412.025 854.177 411.472 851.996 410.365C849.848 409.258 848.171 407.582 846.967 405.336C845.795 403.09 845.209 400.323 845.209 397.035C845.209 394.594 845.616 392.348 846.43 390.297C847.276 388.246 848.529 386.472 850.189 384.975C851.85 383.445 853.933 382.257 856.439 381.41C858.946 380.564 861.859 380.141 865.18 380.141H875.238ZM935.139 400.746V336H940.559V411H935.48L935.139 400.746ZM904.475 387.074V382.143C904.475 377.715 904.865 373.923 905.646 370.766C906.46 367.576 907.616 364.988 909.113 363.002C910.611 361.016 912.417 359.551 914.533 358.607C916.682 357.663 919.074 357.191 921.711 357.191C924.283 357.191 926.529 357.68 928.449 358.656C930.402 359.6 932.062 360.951 933.43 362.709C934.797 364.467 935.904 366.566 936.75 369.008C937.596 371.417 938.215 374.118 938.605 377.113V392.885C938.28 395.684 937.694 398.256 936.848 400.6C936.034 402.943 934.927 404.962 933.527 406.654C932.16 408.347 930.484 409.665 928.498 410.609C926.512 411.553 924.201 412.025 921.564 412.025C918.96 412.025 916.6 411.521 914.484 410.512C912.401 409.503 910.611 407.973 909.113 405.922C907.616 403.871 906.46 401.283 905.646 398.158C904.865 395.033 904.475 391.339 904.475 387.074ZM909.943 382.143V387.074C909.943 390.46 910.188 393.389 910.676 395.863C911.197 398.337 911.978 400.388 913.02 402.016C914.094 403.611 915.428 404.815 917.023 405.629C918.618 406.41 920.507 406.801 922.688 406.801C925.454 406.801 927.766 406.231 929.621 405.092C931.477 403.92 932.958 402.39 934.064 400.502C935.204 398.581 936.034 396.482 936.555 394.203V376.137C936.229 374.574 935.741 372.995 935.09 371.4C934.471 369.773 933.641 368.275 932.6 366.908C931.558 365.541 930.223 364.451 928.596 363.637C927.001 362.79 925.064 362.367 922.785 362.367C920.572 362.367 918.651 362.774 917.023 363.588C915.396 364.369 914.061 365.574 913.02 367.201C911.978 368.829 911.197 370.88 910.676 373.354C910.188 375.795 909.943 378.725 909.943 382.143ZM984.688 412.025C981.758 412.025 979.056 411.553 976.582 410.609C974.141 409.633 972.025 408.168 970.234 406.215C968.477 404.229 967.109 401.739 966.133 398.744C965.156 395.717 964.668 392.152 964.668 388.051V381.947C964.668 377.585 965.189 373.842 966.23 370.717C967.272 367.559 968.672 364.988 970.43 363.002C972.22 360.984 974.255 359.519 976.533 358.607C978.812 357.663 981.221 357.191 983.76 357.191C986.657 357.191 989.196 357.663 991.377 358.607C993.59 359.551 995.446 360.984 996.943 362.904C998.441 364.825 999.564 367.25 1000.31 370.18C1001.06 373.077 1001.44 376.511 1001.44 380.482V385.023H967.939V379.945H996.016V378.578C995.951 375.128 995.462 372.198 994.551 369.789C993.672 367.348 992.337 365.492 990.547 364.223C988.789 362.921 986.543 362.27 983.809 362.27C981.79 362.27 979.935 362.644 978.242 363.393C976.549 364.109 975.085 365.248 973.848 366.811C972.643 368.373 971.715 370.408 971.064 372.914C970.446 375.421 970.137 378.432 970.137 381.947V388.051C970.137 391.273 970.479 394.073 971.162 396.449C971.878 398.793 972.887 400.746 974.189 402.309C975.492 403.839 977.054 404.994 978.877 405.775C980.7 406.524 982.718 406.898 984.932 406.898C987.666 406.898 990.059 406.443 992.109 405.531C994.16 404.587 995.983 403.171 997.578 401.283L1000.46 404.896C999.482 406.166 998.278 407.354 996.846 408.461C995.413 409.535 993.704 410.398 991.719 411.049C989.733 411.7 987.389 412.025 984.688 412.025ZM1066.4 339.906V411H1060.79V339.906H1066.4ZM1093.65 372.523V377.846H1064.69V372.523H1093.65ZM1097.75 339.906V345.131H1064.69V339.906H1097.75ZM1117.61 387.318V381.85C1117.61 377.846 1118.07 374.314 1118.98 371.254C1119.92 368.194 1121.24 365.622 1122.93 363.539C1124.66 361.423 1126.71 359.844 1129.09 358.803C1131.46 357.729 1134.07 357.191 1136.9 357.191C1139.8 357.191 1142.42 357.729 1144.76 358.803C1147.14 359.844 1149.17 361.423 1150.86 363.539C1152.59 365.622 1153.92 368.194 1154.87 371.254C1155.81 374.314 1156.28 377.846 1156.28 381.85V387.318C1156.28 391.322 1155.81 394.87 1154.87 397.963C1153.92 401.023 1152.59 403.594 1150.86 405.678C1149.17 407.761 1147.14 409.34 1144.76 410.414C1142.42 411.488 1139.81 412.025 1136.95 412.025C1134.08 412.025 1131.46 411.488 1129.09 410.414C1126.74 409.34 1124.71 407.761 1122.98 405.678C1121.26 403.562 1119.92 400.974 1118.98 397.914C1118.07 394.854 1117.61 391.322 1117.61 387.318ZM1123.08 381.85V387.318C1123.08 390.346 1123.37 393.064 1123.96 395.473C1124.58 397.882 1125.49 399.932 1126.69 401.625C1127.9 403.318 1129.35 404.62 1131.04 405.531C1132.76 406.443 1134.73 406.898 1136.95 406.898C1139.29 406.898 1141.33 406.443 1143.05 405.531C1144.81 404.62 1146.26 403.318 1147.4 401.625C1148.57 399.932 1149.43 397.882 1149.98 395.473C1150.57 393.064 1150.86 390.346 1150.86 387.318V381.85C1150.86 378.887 1150.55 376.202 1149.94 373.793C1149.32 371.384 1148.39 369.333 1147.15 367.641C1145.95 365.915 1144.48 364.597 1142.76 363.686C1141.03 362.742 1139.08 362.27 1136.9 362.27C1134.75 362.27 1132.81 362.742 1131.09 363.686C1129.36 364.597 1127.9 365.915 1126.69 367.641C1125.52 369.333 1124.63 371.384 1124.01 373.793C1123.39 376.202 1123.08 378.887 1123.08 381.85ZM1178.73 387.318V381.85C1178.73 377.846 1179.19 374.314 1180.1 371.254C1181.04 368.194 1182.36 365.622 1184.05 363.539C1185.78 361.423 1187.83 359.844 1190.21 358.803C1192.58 357.729 1195.19 357.191 1198.02 357.191C1200.92 357.191 1203.54 357.729 1205.88 358.803C1208.26 359.844 1210.29 361.423 1211.98 363.539C1213.71 365.622 1215.04 368.194 1215.99 371.254C1216.93 374.314 1217.4 377.846 1217.4 381.85V387.318C1217.4 391.322 1216.93 394.87 1215.99 397.963C1215.04 401.023 1213.71 403.594 1211.98 405.678C1210.29 407.761 1208.26 409.34 1205.88 410.414C1203.54 411.488 1200.93 412.025 1198.07 412.025C1195.2 412.025 1192.58 411.488 1190.21 410.414C1187.86 409.34 1185.83 407.761 1184.1 405.678C1182.38 403.562 1181.04 400.974 1180.1 397.914C1179.19 394.854 1178.73 391.322 1178.73 387.318ZM1184.2 381.85V387.318C1184.2 390.346 1184.49 393.064 1185.08 395.473C1185.7 397.882 1186.61 399.932 1187.81 401.625C1189.02 403.318 1190.47 404.62 1192.16 405.531C1193.89 406.443 1195.85 406.898 1198.07 406.898C1200.41 406.898 1202.45 406.443 1204.17 405.531C1205.93 404.62 1207.38 403.318 1208.52 401.625C1209.69 399.932 1210.55 397.882 1211.11 395.473C1211.69 393.064 1211.98 390.346 1211.98 387.318V381.85C1211.98 378.887 1211.68 376.202 1211.06 373.793C1210.44 371.384 1209.51 369.333 1208.27 367.641C1207.07 365.915 1205.6 364.597 1203.88 363.686C1202.15 362.742 1200.2 362.27 1198.02 362.27C1195.87 362.27 1193.93 362.742 1192.21 363.686C1190.48 364.597 1189.02 365.915 1187.81 367.641C1186.64 369.333 1185.75 371.384 1185.13 373.793C1184.51 376.202 1184.2 378.887 1184.2 381.85ZM1270.62 400.746V336H1276.04V411H1270.96L1270.62 400.746ZM1239.95 387.074V382.143C1239.95 377.715 1240.34 373.923 1241.12 370.766C1241.94 367.576 1243.09 364.988 1244.59 363.002C1246.09 361.016 1247.89 359.551 1250.01 358.607C1252.16 357.663 1254.55 357.191 1257.19 357.191C1259.76 357.191 1262.01 357.68 1263.93 358.656C1265.88 359.6 1267.54 360.951 1268.91 362.709C1270.27 364.467 1271.38 366.566 1272.23 369.008C1273.07 371.417 1273.69 374.118 1274.08 377.113V392.885C1273.76 395.684 1273.17 398.256 1272.32 400.6C1271.51 402.943 1270.4 404.962 1269 406.654C1267.64 408.347 1265.96 409.665 1263.97 410.609C1261.99 411.553 1259.68 412.025 1257.04 412.025C1254.44 412.025 1252.08 411.521 1249.96 410.512C1247.88 409.503 1246.09 407.973 1244.59 405.922C1243.09 403.871 1241.94 401.283 1241.12 398.158C1240.34 395.033 1239.95 391.339 1239.95 387.074ZM1245.42 382.143V387.074C1245.42 390.46 1245.66 393.389 1246.15 395.863C1246.67 398.337 1247.45 400.388 1248.5 402.016C1249.57 403.611 1250.9 404.815 1252.5 405.629C1254.1 406.41 1255.98 406.801 1258.16 406.801C1260.93 406.801 1263.24 406.231 1265.1 405.092C1266.95 403.92 1268.43 402.39 1269.54 400.502C1270.68 398.581 1271.51 396.482 1272.03 394.203V376.137C1271.71 374.574 1271.22 372.995 1270.57 371.4C1269.95 369.773 1269.12 368.275 1268.08 366.908C1267.03 365.541 1265.7 364.451 1264.07 363.637C1262.48 362.79 1260.54 362.367 1258.26 362.367C1256.05 362.367 1254.13 362.774 1252.5 363.588C1250.87 364.369 1249.54 365.574 1248.5 367.201C1247.45 368.829 1246.67 370.88 1246.15 373.354C1245.66 375.795 1245.42 378.725 1245.42 382.143Z" fill="black"/>
<defs>
<clipPath id="clip0_405_2">
<rect width="252.057" height="252.057" fill="white" transform="matrix(-0.258819 -0.965926 -0.965926 0.258819 1351.34 317.904)"/>
</clipPath>
</defs>
</svg>
