<svg xmlns="http://www.w3.org/2000/svg" xmlns:xlink="http://www.w3.org/1999/xlink" width="500" zoomAndPan="magnify" viewBox="0 0 375 374.999991" height="500" preserveAspectRatio="xMidYMid meet" version="1.0"><defs><g/><clipPath id="d6b43e9971"><path d="M 156 114 L 191 114 L 191 153 L 156 153 Z M 156 114 " clip-rule="nonzero"/></clipPath><clipPath id="979bc482ba"><path d="M 176.292969 106.851562 L 200.257812 122.277344 L 173.464844 163.898438 L 149.5 148.472656 Z M 176.292969 106.851562 " clip-rule="nonzero"/></clipPath><clipPath id="9a045e5a85"><path d="M 176.292969 106.851562 L 200.257812 122.277344 L 173.464844 163.898438 L 149.5 148.472656 Z M 176.292969 106.851562 " clip-rule="nonzero"/></clipPath><clipPath id="e9836653b9"><path d="M 176.292969 106.851562 L 200.257812 122.277344 L 173.464844 163.898438 L 149.5 148.472656 Z M 176.292969 106.851562 " clip-rule="nonzero"/></clipPath><clipPath id="a8065734b1"><path d="M 188.398438 139.945312 C 190.382812 136.140625 191.066406 131.773438 190.925781 127.511719 C 190.78125 123.25 189.84375 119.070312 188.75 114.972656 C 188.382812 117.863281 186.144531 120.257812 183.566406 121.609375 C 180.992188 122.957031 178.082031 123.445312 175.238281 123.96875 C 172.394531 124.488281 169.488281 125.09375 167.007812 126.625 C 164.292969 128.300781 158.816406 134.054688 161.4375 142 C 164.144531 138.75 165.152344 137.714844 167.722656 136.058594 C 170.292969 134.398438 173.238281 133.480469 176.039062 132.269531 C 178.835938 131.054688 181.621094 129.433594 183.273438 126.851562 C 182.140625 128.953125 180.207031 130.511719 178.164062 131.726562 C 176.117188 132.941406 173.921875 133.878906 171.882812 135.101562 C 168.195312 137.308594 164.03125 141.140625 156.441406 152.941406 C 157.382812 151.574219 158.78125 150.476562 160.316406 149.777344 C 160.542969 149.671875 160.773438 149.578125 161 149.492188 C 161.171875 149.429688 161.34375 149.371094 161.515625 149.3125 C 164.21875 148.445312 167.125 148.507812 169.953125 148.632812 C 172.960938 148.765625 176.039062 148.949219 178.945312 148.101562 C 183.027344 146.917969 186.410156 143.742188 188.398438 139.945312 Z M 188.398438 139.945312 " clip-rule="nonzero"/></clipPath><linearGradient x1="2460.78" gradientTransform="matrix(-0.0340554, -0.0219206, -0.0223337, 0.0346973, 272.651028, 168.873886)" y1="-28.269971" x2="2460.78" gradientUnits="userSpaceOnUse" y2="1199.600141" id="703849bdd9"><stop stop-opacity="1" stop-color="rgb(49.842834%, 70.623779%, 25.431824%)" offset="0"/><stop stop-opacity="1" stop-color="rgb(49.697876%, 70.454407%, 25.418091%)" offset="0.125"/><stop stop-opacity="1" stop-color="rgb(49.407959%, 70.118713%, 25.390625%)" offset="0.25"/><stop stop-opacity="1" stop-color="rgb(49.118042%, 69.781494%, 25.363159%)" offset="0.375"/><stop stop-opacity="1" stop-color="rgb(48.828125%, 69.444275%, 25.337219%)" offset="0.5"/><stop stop-opacity="1" stop-color="rgb(48.538208%, 69.107056%, 25.309753%)" offset="0.625"/><stop stop-opacity="1" stop-color="rgb(48.248291%, 68.769836%, 25.283813%)" offset="0.75"/><stop stop-opacity="1" stop-color="rgb(47.958374%, 68.432617%, 25.256348%)" offset="0.875"/><stop stop-opacity="1" stop-color="rgb(47.668457%, 68.096924%, 25.228882%)" offset="1"/></linearGradient><clipPath id="ad0562ad95"><path d="M 155 114 L 192 114 L 192 154 L 155 154 Z M 155 114 " clip-rule="nonzero"/></clipPath><clipPath id="f4b831fe05"><path d="M 176.292969 106.851562 L 200.257812 122.277344 L 173.464844 163.898438 L 149.5 148.472656 Z M 176.292969 106.851562 " clip-rule="nonzero"/></clipPath><clipPath id="9b2412e668"><path d="M 176.292969 106.851562 L 200.257812 122.277344 L 173.464844 163.898438 L 149.5 148.472656 Z M 176.292969 106.851562 " clip-rule="nonzero"/></clipPath><clipPath id="d5f2d8d027"><path d="M 176.292969 106.851562 L 200.257812 122.277344 L 173.464844 163.898438 L 149.5 148.472656 Z M 176.292969 106.851562 " clip-rule="nonzero"/></clipPath></defs><g clip-path="url(#d6b43e9971)"><g clip-path="url(#979bc482ba)"><g clip-path="url(#9a045e5a85)"><g clip-path="url(#e9836653b9)"><g clip-path="url(#a8065734b1)"><path fill="url(#703849bdd9)" d="M 208.34375 126.09375 L 180.921875 168.699219 L 139.160156 141.816406 L 166.582031 99.214844 Z M 208.34375 126.09375 " fill-rule="nonzero"/></g></g></g></g></g><g clip-path="url(#ad0562ad95)"><g clip-path="url(#f4b831fe05)"><g clip-path="url(#9b2412e668)"><g clip-path="url(#d5f2d8d027)"><path stroke-linecap="butt" transform="matrix(0.0340554, 0.0219206, -0.0223337, 0.0346973, 177.705214, 107.759803)" fill="none" stroke-linejoin="miter" d="M 652.135675 515.611641 C 642.489666 412.051932 598.319747 314.09161 538.446936 229.091519 C 478.493024 144.142666 403.171813 71.266544 325.702809 2.111521 C 356.709302 65.832493 342.238548 143.986668 306.773859 205.345012 C 271.338068 266.572518 217.44297 314.694201 165.396419 362.661262 C 113.297665 410.548723 61.04975 461.007196 30.013917 524.746259 C -3.956491 594.504775 -40.76585 783.59123 119.833423 911.119508 C 132.603933 809.384288 139.694337 775.070893 170.925012 707.60615 C 202.103485 640.061806 250.986194 582.722888 292.952953 521.309668 C 334.786409 459.868085 370.947477 390.301715 370.747312 316.012244 C 375.31301 373.696278 355.996772 430.819367 329.81586 482.37221 C 303.553846 533.976289 270.503592 581.875708 244.508186 633.536515 C 197.443134 726.878773 162.20006 859.585934 162.324729 1199.613855 C 163.599181 1159.40541 177.964467 1118.694701 200.492975 1084.309992 C 203.787374 1079.189021 207.319483 1074.255616 210.874896 1069.532649 C 213.608108 1066.004606 216.393523 1062.556164 219.178937 1059.107722 C 263.712004 1005.98031 324.886584 969.133597 385.274381 934.585239 C 449.497242 897.83918 515.858561 861.205668 564.869907 805.811937 C 633.803298 728.150188 661.596177 619.063384 652.135675 515.611641 Z M 652.135675 515.611641 " stroke="#ffffff" stroke-width="1" stroke-opacity="1" stroke-miterlimit="10"/></g></g></g></g><g fill="#474747" fill-opacity="1"><g transform="translate(67.033462, 230.981882)"><g><path d="M 44.984375 -7.78125 C 50.648438 -7.78125 55.617188 -9.210938 59.890625 -12.078125 C 64.160156 -14.953125 67.332031 -18.820312 69.40625 -23.6875 L 78.859375 -23.6875 C 76.222656 -16.1875 71.875 -10.285156 65.8125 -5.984375 C 59.351562 -1.359375 51.734375 0.953125 42.953125 0.953125 C 31.390625 0.953125 22.019531 -2.992188 14.84375 -10.890625 C 8.0625 -18.460938 4.671875 -28.03125 4.671875 -39.59375 C 4.671875 -51.164062 8.0625 -60.742188 14.84375 -68.328125 C 22.019531 -76.222656 31.390625 -80.171875 42.953125 -80.171875 C 51.734375 -80.171875 59.351562 -77.859375 65.8125 -73.234375 C 71.875 -68.921875 76.222656 -63.015625 78.859375 -55.515625 L 69.40625 -55.515625 C 67.332031 -60.378906 64.160156 -64.25 59.890625 -67.125 C 55.617188 -70 50.648438 -71.4375 44.984375 -71.4375 C 39.328125 -71.4375 34.625 -70.617188 30.875 -68.984375 C 27.125 -67.347656 23.972656 -65.09375 21.421875 -62.21875 C 16.234375 -56.394531 13.640625 -48.859375 13.640625 -39.609375 C 13.640625 -30.347656 16.234375 -22.804688 21.421875 -16.984375 C 26.847656 -10.847656 34.703125 -7.78125 44.984375 -7.78125 Z M 44.984375 -7.78125 "/></g></g></g><g fill="#474747" fill-opacity="1"><g transform="translate(149.588314, 230.981882)"><g><path d="M 18.671875 0 L 9.6875 0 L 9.6875 -79.21875 L 18.671875 -79.21875 Z M 18.671875 0 "/></g></g></g><g fill="#474747" fill-opacity="1"><g transform="translate(177.944112, 230.981882)"><g><path d="M 70.234375 -58.265625 C 70.234375 -49.578125 66.6875 -43.632812 59.59375 -40.4375 C 66.132812 -38.289062 70.597656 -34.34375 72.984375 -28.59375 C 73.867188 -26.363281 74.3125 -23.769531 74.3125 -20.8125 C 74.3125 -11.25 69.242188 -4.867188 59.109375 -1.671875 C 55.753906 -0.554688 51.804688 0 47.265625 0 L 9.6875 0 L 9.6875 -79.21875 L 45.234375 -79.21875 C 53.765625 -79.21875 60.265625 -76.898438 64.734375 -72.265625 C 68.398438 -68.597656 70.234375 -63.929688 70.234375 -58.265625 Z M 18.671875 -43.796875 L 45.234375 -43.796875 C 52.566406 -43.796875 57.472656 -46.304688 59.953125 -51.328125 C 60.828125 -53.085938 61.265625 -54.984375 61.265625 -57.015625 C 61.265625 -59.046875 60.984375 -60.835938 60.421875 -62.390625 C 59.867188 -63.953125 58.992188 -65.332031 57.796875 -66.53125 C 55.160156 -69.320312 51.289062 -70.71875 46.1875 -70.71875 L 18.671875 -70.71875 Z M 48.21875 -8.5 C 53.726562 -8.5 57.957031 -9.632812 60.90625 -11.90625 C 63.851562 -14.175781 65.328125 -17.382812 65.328125 -21.53125 C 65.328125 -25.519531 63.894531 -28.789062 61.03125 -31.34375 C 57.832031 -34.21875 53.242188 -35.65625 47.265625 -35.65625 L 18.671875 -35.65625 L 18.671875 -8.5 Z M 48.21875 -8.5 "/></g></g></g><g fill="#fc7217" fill-opacity="0.4"><g transform="translate(250.344903, 230.981882)"><g><path d="M 44.875 -80.171875 C 56.675781 -80.171875 66.367188 -76.222656 73.953125 -68.328125 C 81.367188 -60.671875 85.078125 -51.097656 85.078125 -39.609375 C 85.078125 -28.117188 81.367188 -18.546875 73.953125 -10.890625 C 66.367188 -2.992188 56.675781 0.953125 44.875 0.953125 C 33.0625 0.953125 23.367188 -2.992188 15.796875 -10.890625 C 8.378906 -18.546875 4.671875 -28.117188 4.671875 -39.609375 C 4.671875 -51.097656 8.378906 -60.671875 15.796875 -68.328125 C 23.367188 -76.222656 33.0625 -80.171875 44.875 -80.171875 Z M 44.875 -7.78125 C 54.28125 -7.78125 61.894531 -10.847656 67.71875 -16.984375 C 73.300781 -22.890625 76.09375 -30.429688 76.09375 -39.609375 C 76.09375 -48.773438 73.300781 -56.3125 67.71875 -62.21875 C 61.894531 -68.363281 54.28125 -71.4375 44.875 -71.4375 C 35.457031 -71.4375 27.835938 -68.363281 22.015625 -62.21875 C 16.429688 -56.3125 13.640625 -48.773438 13.640625 -39.609375 C 13.640625 -30.429688 16.429688 -22.890625 22.015625 -16.984375 C 27.835938 -10.847656 35.457031 -7.78125 44.875 -7.78125 Z M 44.875 -7.78125 "/></g></g></g><g fill="#fc7217" fill-opacity="1"><g transform="translate(250.344903, 230.981882)"><g><path d="M 44.875 -80.171875 C 56.675781 -80.171875 66.367188 -76.222656 73.953125 -68.328125 C 81.367188 -60.671875 85.078125 -51.097656 85.078125 -39.609375 C 85.078125 -28.117188 81.367188 -18.546875 73.953125 -10.890625 C 66.367188 -2.992188 56.675781 0.953125 44.875 0.953125 C 33.0625 0.953125 23.367188 -2.992188 15.796875 -10.890625 C 8.378906 -18.546875 4.671875 -28.117188 4.671875 -39.609375 C 4.671875 -51.097656 8.378906 -60.671875 15.796875 -68.328125 C 23.367188 -76.222656 33.0625 -80.171875 44.875 -80.171875 Z M 44.875 -7.78125 C 54.28125 -7.78125 61.894531 -10.847656 67.71875 -16.984375 C 73.300781 -22.890625 76.09375 -30.429688 76.09375 -39.609375 C 76.09375 -48.773438 73.300781 -56.3125 67.71875 -62.21875 C 61.894531 -68.363281 54.28125 -71.4375 44.875 -71.4375 C 35.457031 -71.4375 27.835938 -68.363281 22.015625 -62.21875 C 16.429688 -56.3125 13.640625 -48.773438 13.640625 -39.609375 C 13.640625 -30.429688 16.429688 -22.890625 22.015625 -16.984375 C 27.835938 -10.847656 35.457031 -7.78125 44.875 -7.78125 Z M 44.875 -7.78125 "/></g></g></g></svg>