<svg xmlns="http://www.w3.org/2000/svg" xmlns:xlink="http://www.w3.org/1999/xlink" width="500" zoomAndPan="magnify" viewBox="0 0 375 149.999998" height="200" preserveAspectRatio="xMidYMid meet" version="1.0"><defs><g/><clipPath id="d08789e4dc"><path d="M 78.644531 55.753906 L 96.960938 55.753906 L 96.960938 77.292969 L 78.644531 77.292969 Z M 78.644531 55.753906 " clip-rule="nonzero"/></clipPath><clipPath id="80002d4168"><path d="M 87.804688 55.753906 C 82.746094 55.753906 78.644531 60.574219 78.644531 66.523438 C 78.644531 72.46875 82.746094 77.289062 87.804688 77.289062 C 92.863281 77.289062 96.960938 72.46875 96.960938 66.523438 C 96.960938 60.574219 92.863281 55.753906 87.804688 55.753906 Z M 87.804688 55.753906 " clip-rule="nonzero"/></clipPath><clipPath id="2b059d3f57"><path d="M 82.46875 74.992188 L 100.339844 74.992188 L 100.339844 96.984375 L 82.46875 96.984375 Z M 82.46875 74.992188 " clip-rule="nonzero"/></clipPath><clipPath id="57973443fd"><path d="M 91.40625 74.992188 C 86.46875 74.992188 82.46875 79.910156 82.46875 85.976562 C 82.46875 92.039062 86.46875 96.957031 91.40625 96.957031 C 96.339844 96.957031 100.339844 92.039062 100.339844 85.976562 C 100.339844 79.910156 96.339844 74.992188 91.40625 74.992188 Z M 91.40625 74.992188 " clip-rule="nonzero"/></clipPath><clipPath id="9fa048e2cc"><path d="M 285 75 L 304 75 L 304 91 L 285 91 Z M 285 75 " clip-rule="nonzero"/></clipPath><clipPath id="63727176e4"><path d="M 287.199219 73.816406 L 304.714844 76.765625 L 302.230469 91.515625 L 284.714844 88.566406 Z M 287.199219 73.816406 " clip-rule="nonzero"/></clipPath><clipPath id="5078b6e23f"><path d="M 295.9375 75.285156 C 291.109375 74.472656 286.640625 77.117188 285.957031 81.191406 C 285.269531 85.265625 288.628906 89.226562 293.453125 90.039062 C 298.28125 90.851562 302.75 88.207031 303.433594 84.132812 C 304.121094 80.058594 300.765625 76.097656 295.9375 75.285156 Z M 295.9375 75.285156 " clip-rule="nonzero"/></clipPath><clipPath id="0c8892291d"><path d="M 286 88 L 301 88 L 301 101 L 286 101 Z M 286 88 " clip-rule="nonzero"/></clipPath><clipPath id="6f638e1fec"><path d="M 287.523438 87.632812 L 301.160156 89.460938 L 299.625 100.90625 L 285.988281 99.078125 Z M 287.523438 87.632812 " clip-rule="nonzero"/></clipPath><clipPath id="4ecfd27bf0"><path d="M 294.328125 88.546875 C 290.570312 88.042969 287.179688 90.195312 286.757812 93.355469 C 286.332031 96.515625 289.035156 99.488281 292.792969 99.992188 C 296.550781 100.496094 299.941406 98.339844 300.363281 95.179688 C 300.789062 92.019531 298.085938 89.046875 294.328125 88.546875 Z M 294.328125 88.546875 " clip-rule="nonzero"/></clipPath><clipPath id="ac0c32d3fb"><path d="M 293 93 L 304 93 L 304 104 L 293 104 Z M 293 93 " clip-rule="nonzero"/></clipPath><clipPath id="9e014d3389"><path d="M 286.644531 98.972656 L 294.511719 78.695312 L 322.480469 89.546875 L 314.609375 109.824219 Z M 286.644531 98.972656 " clip-rule="nonzero"/></clipPath><clipPath id="3cc1c036aa"><path d="M 286.644531 98.972656 L 294.511719 78.695312 L 322.480469 89.546875 L 314.609375 109.824219 Z M 286.644531 98.972656 " clip-rule="nonzero"/></clipPath><clipPath id="510317d915"><path d="M 299 83 L 305 83 L 305 89 L 299 89 Z M 299 83 " clip-rule="nonzero"/></clipPath><clipPath id="4d38692055"><path d="M 286.644531 98.972656 L 294.511719 78.695312 L 322.480469 89.546875 L 314.609375 109.824219 Z M 286.644531 98.972656 " clip-rule="nonzero"/></clipPath><clipPath id="f50b650eb7"><path d="M 286.644531 98.972656 L 294.511719 78.695312 L 322.480469 89.546875 L 314.609375 109.824219 Z M 286.644531 98.972656 " clip-rule="nonzero"/></clipPath><clipPath id="d7bcc5c417"><path d="M 309 89 L 321 89 L 321 102 L 309 102 Z M 309 89 " clip-rule="nonzero"/></clipPath><clipPath id="601e91b941"><path d="M 286.644531 98.972656 L 294.511719 78.695312 L 322.480469 89.546875 L 314.609375 109.824219 Z M 286.644531 98.972656 " clip-rule="nonzero"/></clipPath><clipPath id="e5c9e7c209"><path d="M 286.644531 98.972656 L 294.511719 78.695312 L 322.480469 89.546875 L 314.609375 109.824219 Z M 286.644531 98.972656 " clip-rule="nonzero"/></clipPath></defs><rect x="-37.5" width="450" fill="#ffffff" y="-15" height="179.999997" fill-opacity="1"/><rect x="-37.5" width="450" fill="#ffffff" y="-15" height="179.999997" fill-opacity="1"/><g fill="#000000" fill-opacity="1"><g transform="translate(87.872576, 101.531097)"><g><path d="M 2.515625 -31.449219 C 2.515625 -13.332031 14.59375 0.753906 33.839844 0.753906 C 66.417969 0.753906 68.933594 -25.914062 55.976562 -25.914062 C 44.53125 -25.914062 50.316406 -6.039062 36.605469 -6.039062 C 27.296875 -6.039062 23.902344 -18.367188 23.902344 -31.449219 C 23.902344 -44.53125 27.546875 -56.355469 36.355469 -56.355469 C 48.679688 -56.355469 49.941406 -41.636719 57.234375 -41.636719 C 63.148438 -41.636719 58.871094 -51.070312 54.71875 -61.765625 C 54.089844 -63.273438 53.085938 -63.652344 51.699219 -63.652344 C 49.6875 -63.652344 47.171875 -62.894531 44.277344 -62.894531 C 40.503906 -62.894531 38.742188 -63.652344 33.839844 -63.652344 C 15.347656 -63.652344 2.515625 -49.5625 2.515625 -31.449219 Z M 2.515625 -31.449219 "/></g></g></g><g fill="#000000" fill-opacity="1"><g transform="translate(149.124184, 101.531097)"><g><path d="M 15.976562 0 C 18.492188 0 22.265625 0.753906 25.410156 0.753906 C 28.175781 0.753906 30.441406 0.125 30.441406 -2.390625 C 30.441406 -6.039062 26.164062 -4.402344 26.164062 -16.226562 L 26.164062 -44.277344 C 26.164062 -47.925781 25.410156 -51.070312 22.390625 -51.070312 C 19.121094 -51.070312 20.125 -48.554688 12.203125 -45.664062 C 5.660156 -43.273438 1.761719 -44.027344 1.761719 -40.253906 C 1.761719 -36.984375 6.039062 -37.738281 6.039062 -31.070312 C 6.039062 -28.050781 5.914062 -27.675781 5.914062 -16.226562 C 5.914062 -4.402344 1.636719 -6.039062 1.636719 -2.390625 C 1.636719 0.125 3.773438 0.753906 6.667969 0.753906 C 9.6875 0.753906 13.460938 0 15.976562 0 Z M 1.636719 -54.59375 C 2.765625 -51.574219 5.410156 -50.066406 8.804688 -50.066406 C 11.195312 -50.066406 13.964844 -50.820312 16.980469 -52.328125 C 24.027344 -56.101562 27.925781 -62.519531 26.039062 -67.675781 C 24.90625 -70.695312 22.265625 -72.203125 18.867188 -72.203125 C 16.480469 -72.203125 13.710938 -71.449219 10.816406 -69.941406 C 3.773438 -66.167969 -0.125 -59.625 1.636719 -54.59375 Z M 1.636719 -54.59375 "/></g></g></g><g clip-path="url(#d08789e4dc)"><g clip-path="url(#80002d4168)"><path fill="#ffffff" d="M 78.644531 55.753906 L 96.960938 55.753906 L 96.960938 77.292969 L 78.644531 77.292969 Z M 78.644531 55.753906 " fill-opacity="1" fill-rule="nonzero"/></g></g><g clip-path="url(#2b059d3f57)"><g clip-path="url(#57973443fd)"><path fill="#ffffff" d="M 82.46875 74.992188 L 100.339844 74.992188 L 100.339844 96.984375 L 82.46875 96.984375 Z M 82.46875 74.992188 " fill-opacity="1" fill-rule="nonzero"/></g></g><g fill="#000000" fill-opacity="1"><g transform="translate(242.697833, 101.531097)"><g><path d="M 29.8125 0.753906 C 46.542969 0.753906 57.109375 -8.804688 57.109375 -25.160156 C 57.109375 -41.511719 46.542969 -51.070312 29.8125 -51.070312 C 12.957031 -51.070312 2.515625 -41.511719 2.515625 -25.160156 C 2.515625 -8.804688 12.957031 0.753906 29.8125 0.753906 Z M 23.273438 -25.160156 C 23.273438 -35.597656 24.65625 -44.027344 29.8125 -44.027344 C 35.097656 -44.027344 36.355469 -35.597656 36.355469 -25.160156 C 36.355469 -14.71875 35.097656 -6.289062 29.8125 -6.289062 C 24.65625 -6.289062 23.273438 -14.71875 23.273438 -25.160156 Z M 23.273438 -25.160156 "/></g></g></g><g clip-path="url(#9fa048e2cc)"><g clip-path="url(#63727176e4)"><g clip-path="url(#5078b6e23f)"><path fill="#ffffff" d="M 287.199219 73.816406 L 304.65625 76.753906 L 302.171875 91.503906 L 284.714844 88.566406 Z M 287.199219 73.816406 " fill-opacity="1" fill-rule="nonzero"/></g></g></g><g clip-path="url(#0c8892291d)"><g clip-path="url(#6f638e1fec)"><g clip-path="url(#4ecfd27bf0)"><path fill="#ffffff" d="M 287.523438 87.632812 L 301.117188 89.453125 L 299.582031 100.902344 L 285.988281 99.078125 Z M 287.523438 87.632812 " fill-opacity="1" fill-rule="nonzero"/></g></g></g><g clip-path="url(#ac0c32d3fb)"><g clip-path="url(#9e014d3389)"><g clip-path="url(#3cc1c036aa)"><path fill="#000000" d="M 299.214844 103.851562 C 299.214844 103.851562 304.546875 104.753906 303.667969 95.875 C 303.667969 95.875 302.546875 91.730469 297.722656 94.851562 C 297.722656 94.851562 287.253906 97.433594 299.214844 103.851562 Z M 299.214844 103.851562 " fill-opacity="1" fill-rule="nonzero"/></g></g></g><g clip-path="url(#510317d915)"><g clip-path="url(#4d38692055)"><g clip-path="url(#f50b650eb7)"><path fill="#000000" d="M 302.292969 88.957031 C 302.292969 88.957031 304.902344 89.402344 304.472656 85.050781 C 304.472656 85.050781 303.921875 83.015625 301.558594 84.542969 C 301.558594 84.542969 296.429688 85.8125 302.292969 88.957031 Z M 302.292969 88.957031 " fill-opacity="1" fill-rule="nonzero"/></g></g></g><g clip-path="url(#d7bcc5c417)"><g clip-path="url(#601e91b941)"><g clip-path="url(#e5c9e7c209)"><path fill="#000000" d="M 309.882812 94.164062 C 309.882812 94.164062 309.355469 103.515625 313.832031 100.660156 C 318.300781 97.808594 320.113281 96.203125 320.113281 96.203125 C 320.113281 96.203125 313.4375 85.964844 311.660156 90.066406 C 309.882812 94.164062 309.882812 94.164062 309.882812 94.164062 Z M 309.882812 94.164062 " fill-opacity="1" fill-rule="nonzero"/></g></g></g><g fill="#8cc342" fill-opacity="1"><g transform="translate(182.648775, 101.531097)"><g><path d="M 15.597656 0 C 25.789062 0 23.648438 0.753906 38.492188 0.753906 C 66.292969 0.753906 65.789062 -51.070312 40.128906 -51.070312 C 28.050781 -51.070312 25.789062 -37.234375 25.789062 -44.152344 L 25.789062 -65.539062 C 25.789062 -69.1875 25.03125 -72.332031 22.011719 -72.332031 C 18.742188 -72.332031 19.875 -69.816406 11.824219 -66.921875 C 5.285156 -64.53125 1.382812 -65.285156 1.382812 -61.511719 C 1.382812 -57.738281 5.660156 -58.996094 5.660156 -52.328125 C 5.660156 -49.3125 5.535156 -27.675781 5.535156 -16.226562 C 5.535156 -4.402344 1.257812 -6.039062 1.257812 -2.390625 C 1.257812 0.125 3.394531 0.753906 6.289062 0.753906 C 9.308594 0.753906 13.082031 0 15.597656 0 Z M 31.953125 -36.855469 C 36.480469 -36.855469 38.742188 -30.316406 38.742188 -22.769531 C 38.742188 -15.222656 36.480469 -8.929688 31.953125 -8.929688 C 27.421875 -8.929688 25.160156 -15.09375 25.160156 -22.644531 C 25.160156 -30.191406 27.296875 -36.855469 31.953125 -36.855469 Z M 31.953125 -36.855469 "/></g></g></g><g fill="#240f00" fill-opacity="1"><g transform="translate(136.172136, 131.774754)"><g><path d="M 2.046875 0 C 1.765625 0 1.535156 -0.0820312 1.359375 -0.25 C 1.191406 -0.425781 1.109375 -0.644531 1.109375 -0.90625 L 1.109375 -9.46875 C 1.109375 -9.71875 1.191406 -9.929688 1.359375 -10.109375 C 1.535156 -10.285156 1.753906 -10.375 2.015625 -10.375 L 6.828125 -10.375 C 7.085938 -10.375 7.300781 -10.289062 7.46875 -10.125 C 7.644531 -9.957031 7.734375 -9.75 7.734375 -9.5 C 7.734375 -9.28125 7.644531 -9.085938 7.46875 -8.921875 C 7.300781 -8.753906 7.085938 -8.671875 6.828125 -8.671875 L 2.828125 -8.671875 L 2.96875 -8.84375 L 2.96875 -5.859375 L 2.859375 -6.0625 L 6.15625 -6.0625 C 6.414062 -6.0625 6.628906 -5.976562 6.796875 -5.8125 C 6.972656 -5.644531 7.0625 -5.4375 7.0625 -5.1875 C 7.0625 -4.96875 6.972656 -4.773438 6.796875 -4.609375 C 6.628906 -4.441406 6.414062 -4.359375 6.15625 -4.359375 L 2.828125 -4.359375 L 2.96875 -4.484375 L 2.96875 -0.90625 C 2.96875 -0.644531 2.875 -0.425781 2.6875 -0.25 C 2.507812 -0.0820312 2.296875 0 2.046875 0 Z M 2.046875 0 "/></g></g></g><g fill="#240f00" fill-opacity="1"><g transform="translate(144.496369, 131.774754)"><g><path d="M 10.65625 -5.1875 C 10.65625 -4.445312 10.53125 -3.753906 10.28125 -3.109375 C 10.03125 -2.460938 9.679688 -1.894531 9.234375 -1.40625 C 8.785156 -0.925781 8.25 -0.546875 7.625 -0.265625 C 7.007812 0.00390625 6.335938 0.140625 5.609375 0.140625 C 4.878906 0.140625 4.207031 0.00390625 3.59375 -0.265625 C 2.988281 -0.546875 2.457031 -0.925781 2 -1.40625 C 1.550781 -1.894531 1.203125 -2.460938 0.953125 -3.109375 C 0.710938 -3.753906 0.59375 -4.445312 0.59375 -5.1875 C 0.59375 -5.925781 0.710938 -6.613281 0.953125 -7.25 C 1.203125 -7.894531 1.550781 -8.460938 2 -8.953125 C 2.457031 -9.441406 2.988281 -9.820312 3.59375 -10.09375 C 4.207031 -10.375 4.878906 -10.515625 5.609375 -10.515625 C 6.335938 -10.515625 7.007812 -10.375 7.625 -10.09375 C 8.25 -9.820312 8.785156 -9.441406 9.234375 -8.953125 C 9.679688 -8.460938 10.03125 -7.894531 10.28125 -7.25 C 10.53125 -6.613281 10.65625 -5.925781 10.65625 -5.1875 Z M 8.71875 -5.1875 C 8.71875 -5.84375 8.582031 -6.441406 8.3125 -6.984375 C 8.050781 -7.523438 7.6875 -7.953125 7.21875 -8.265625 C 6.757812 -8.578125 6.222656 -8.734375 5.609375 -8.734375 C 5.003906 -8.734375 4.46875 -8.578125 4 -8.265625 C 3.53125 -7.953125 3.164062 -7.523438 2.90625 -6.984375 C 2.644531 -6.453125 2.515625 -5.851562 2.515625 -5.1875 C 2.515625 -4.519531 2.644531 -3.914062 2.90625 -3.375 C 3.164062 -2.84375 3.53125 -2.414062 4 -2.09375 C 4.46875 -1.78125 5.003906 -1.625 5.609375 -1.625 C 6.222656 -1.625 6.757812 -1.78125 7.21875 -2.09375 C 7.6875 -2.414062 8.050781 -2.84375 8.3125 -3.375 C 8.582031 -3.914062 8.71875 -4.519531 8.71875 -5.1875 Z M 8.71875 -5.1875 "/></g></g></g><g fill="#240f00" fill-opacity="1"><g transform="translate(155.738525, 131.774754)"><g><path d="M 10.65625 -5.1875 C 10.65625 -4.445312 10.53125 -3.753906 10.28125 -3.109375 C 10.03125 -2.460938 9.679688 -1.894531 9.234375 -1.40625 C 8.785156 -0.925781 8.25 -0.546875 7.625 -0.265625 C 7.007812 0.00390625 6.335938 0.140625 5.609375 0.140625 C 4.878906 0.140625 4.207031 0.00390625 3.59375 -0.265625 C 2.988281 -0.546875 2.457031 -0.925781 2 -1.40625 C 1.550781 -1.894531 1.203125 -2.460938 0.953125 -3.109375 C 0.710938 -3.753906 0.59375 -4.445312 0.59375 -5.1875 C 0.59375 -5.925781 0.710938 -6.613281 0.953125 -7.25 C 1.203125 -7.894531 1.550781 -8.460938 2 -8.953125 C 2.457031 -9.441406 2.988281 -9.820312 3.59375 -10.09375 C 4.207031 -10.375 4.878906 -10.515625 5.609375 -10.515625 C 6.335938 -10.515625 7.007812 -10.375 7.625 -10.09375 C 8.25 -9.820312 8.785156 -9.441406 9.234375 -8.953125 C 9.679688 -8.460938 10.03125 -7.894531 10.28125 -7.25 C 10.53125 -6.613281 10.65625 -5.925781 10.65625 -5.1875 Z M 8.71875 -5.1875 C 8.71875 -5.84375 8.582031 -6.441406 8.3125 -6.984375 C 8.050781 -7.523438 7.6875 -7.953125 7.21875 -8.265625 C 6.757812 -8.578125 6.222656 -8.734375 5.609375 -8.734375 C 5.003906 -8.734375 4.46875 -8.578125 4 -8.265625 C 3.53125 -7.953125 3.164062 -7.523438 2.90625 -6.984375 C 2.644531 -6.453125 2.515625 -5.851562 2.515625 -5.1875 C 2.515625 -4.519531 2.644531 -3.914062 2.90625 -3.375 C 3.164062 -2.84375 3.53125 -2.414062 4 -2.09375 C 4.46875 -1.78125 5.003906 -1.625 5.609375 -1.625 C 6.222656 -1.625 6.757812 -1.78125 7.21875 -2.09375 C 7.6875 -2.414062 8.050781 -2.84375 8.3125 -3.375 C 8.582031 -3.914062 8.71875 -4.519531 8.71875 -5.1875 Z M 8.71875 -5.1875 "/></g></g></g><g fill="#240f00" fill-opacity="1"><g transform="translate(166.980682, 131.774754)"><g><path d="M 5.546875 -10.375 C 6.265625 -10.375 6.898438 -10.238281 7.453125 -9.96875 C 8.003906 -9.695312 8.46875 -9.320312 8.84375 -8.84375 C 9.226562 -8.363281 9.515625 -7.8125 9.703125 -7.1875 C 9.898438 -6.5625 10 -5.894531 10 -5.1875 C 10 -4.226562 9.828125 -3.351562 9.484375 -2.5625 C 9.140625 -1.78125 8.632812 -1.15625 7.96875 -0.6875 C 7.3125 -0.226562 6.503906 0 5.546875 0 L 2.015625 0 C 1.753906 0 1.535156 -0.0820312 1.359375 -0.25 C 1.191406 -0.425781 1.109375 -0.644531 1.109375 -0.90625 L 1.109375 -9.46875 C 1.109375 -9.71875 1.191406 -9.929688 1.359375 -10.109375 C 1.535156 -10.285156 1.753906 -10.375 2.015625 -10.375 Z M 5.40625 -1.703125 C 6.03125 -1.703125 6.539062 -1.863281 6.9375 -2.1875 C 7.332031 -2.507812 7.617188 -2.929688 7.796875 -3.453125 C 7.984375 -3.984375 8.078125 -4.5625 8.078125 -5.1875 C 8.078125 -5.644531 8.023438 -6.082031 7.921875 -6.5 C 7.816406 -6.925781 7.65625 -7.300781 7.4375 -7.625 C 7.21875 -7.945312 6.941406 -8.203125 6.609375 -8.390625 C 6.273438 -8.578125 5.875 -8.671875 5.40625 -8.671875 L 2.8125 -8.671875 L 2.96875 -8.796875 L 2.96875 -1.546875 L 2.875 -1.703125 Z M 5.40625 -1.703125 "/></g></g></g><g fill="#240f00" fill-opacity="1"><g transform="translate(177.57112, 131.774754)"><g/></g></g><g fill="#240f00" fill-opacity="1"><g transform="translate(181.718422, 131.774754)"><g><path d="M 6.828125 -1.734375 C 7.085938 -1.734375 7.300781 -1.648438 7.46875 -1.484375 C 7.644531 -1.328125 7.734375 -1.117188 7.734375 -0.859375 C 7.734375 -0.609375 7.644531 -0.398438 7.46875 -0.234375 C 7.300781 -0.078125 7.085938 0 6.828125 0 L 2.015625 0 C 1.753906 0 1.535156 -0.0820312 1.359375 -0.25 C 1.191406 -0.425781 1.109375 -0.644531 1.109375 -0.90625 L 1.109375 -9.46875 C 1.109375 -9.71875 1.195312 -9.929688 1.375 -10.109375 C 1.550781 -10.285156 1.78125 -10.375 2.0625 -10.375 C 2.300781 -10.375 2.507812 -10.285156 2.6875 -10.109375 C 2.875 -9.929688 2.96875 -9.71875 2.96875 -9.46875 L 2.96875 -1.484375 L 2.640625 -1.734375 Z M 6.828125 -1.734375 "/></g></g></g><g fill="#240f00" fill-opacity="1"><g transform="translate(190.042655, 131.774754)"><g><path d="M 10.65625 -5.1875 C 10.65625 -4.445312 10.53125 -3.753906 10.28125 -3.109375 C 10.03125 -2.460938 9.679688 -1.894531 9.234375 -1.40625 C 8.785156 -0.925781 8.25 -0.546875 7.625 -0.265625 C 7.007812 0.00390625 6.335938 0.140625 5.609375 0.140625 C 4.878906 0.140625 4.207031 0.00390625 3.59375 -0.265625 C 2.988281 -0.546875 2.457031 -0.925781 2 -1.40625 C 1.550781 -1.894531 1.203125 -2.460938 0.953125 -3.109375 C 0.710938 -3.753906 0.59375 -4.445312 0.59375 -5.1875 C 0.59375 -5.925781 0.710938 -6.613281 0.953125 -7.25 C 1.203125 -7.894531 1.550781 -8.460938 2 -8.953125 C 2.457031 -9.441406 2.988281 -9.820312 3.59375 -10.09375 C 4.207031 -10.375 4.878906 -10.515625 5.609375 -10.515625 C 6.335938 -10.515625 7.007812 -10.375 7.625 -10.09375 C 8.25 -9.820312 8.785156 -9.441406 9.234375 -8.953125 C 9.679688 -8.460938 10.03125 -7.894531 10.28125 -7.25 C 10.53125 -6.613281 10.65625 -5.925781 10.65625 -5.1875 Z M 8.71875 -5.1875 C 8.71875 -5.84375 8.582031 -6.441406 8.3125 -6.984375 C 8.050781 -7.523438 7.6875 -7.953125 7.21875 -8.265625 C 6.757812 -8.578125 6.222656 -8.734375 5.609375 -8.734375 C 5.003906 -8.734375 4.46875 -8.578125 4 -8.265625 C 3.53125 -7.953125 3.164062 -7.523438 2.90625 -6.984375 C 2.644531 -6.453125 2.515625 -5.851562 2.515625 -5.1875 C 2.515625 -4.519531 2.644531 -3.914062 2.90625 -3.375 C 3.164062 -2.84375 3.53125 -2.414062 4 -2.09375 C 4.46875 -1.78125 5.003906 -1.625 5.609375 -1.625 C 6.222656 -1.625 6.757812 -1.78125 7.21875 -2.09375 C 7.6875 -2.414062 8.050781 -2.84375 8.3125 -3.375 C 8.582031 -3.914062 8.71875 -4.519531 8.71875 -5.1875 Z M 8.71875 -5.1875 "/></g></g></g><g fill="#240f00" fill-opacity="1"><g transform="translate(201.284811, 131.774754)"><g><path d="M 8.6875 -10.390625 C 8.925781 -10.390625 9.132812 -10.304688 9.3125 -10.140625 C 9.5 -9.984375 9.59375 -9.785156 9.59375 -9.546875 C 9.59375 -9.410156 9.566406 -9.273438 9.515625 -9.140625 L 5.84375 -0.578125 C 5.757812 -0.378906 5.632812 -0.234375 5.46875 -0.140625 C 5.3125 -0.046875 5.148438 0 4.984375 0 C 4.816406 -0.0078125 4.660156 -0.0625 4.515625 -0.15625 C 4.367188 -0.25 4.253906 -0.382812 4.171875 -0.5625 L 0.515625 -9.15625 C 0.484375 -9.21875 0.460938 -9.28125 0.453125 -9.34375 C 0.441406 -9.40625 0.4375 -9.46875 0.4375 -9.53125 C 0.4375 -9.8125 0.539062 -10.023438 0.75 -10.171875 C 0.957031 -10.328125 1.15625 -10.40625 1.34375 -10.40625 C 1.71875 -10.40625 1.988281 -10.210938 2.15625 -9.828125 L 5.40625 -2.203125 L 4.890625 -2.1875 L 7.859375 -9.828125 C 8.035156 -10.203125 8.3125 -10.390625 8.6875 -10.390625 Z M 8.6875 -10.390625 "/></g></g></g><g fill="#240f00" fill-opacity="1"><g transform="translate(211.327208, 131.774754)"><g><path d="M 2.015625 -10.375 L 6.984375 -10.375 C 7.234375 -10.375 7.441406 -10.289062 7.609375 -10.125 C 7.785156 -9.957031 7.875 -9.75 7.875 -9.5 C 7.875 -9.25 7.785156 -9.046875 7.609375 -8.890625 C 7.441406 -8.742188 7.234375 -8.671875 6.984375 -8.671875 L 2.828125 -8.671875 L 2.96875 -8.921875 L 2.96875 -6.03125 L 2.84375 -6.140625 L 6.3125 -6.140625 C 6.5625 -6.140625 6.773438 -6.054688 6.953125 -5.890625 C 7.128906 -5.734375 7.21875 -5.523438 7.21875 -5.265625 C 7.21875 -5.023438 7.128906 -4.828125 6.953125 -4.671875 C 6.773438 -4.515625 6.5625 -4.4375 6.3125 -4.4375 L 2.890625 -4.4375 L 2.96875 -4.5625 L 2.96875 -1.5625 L 2.84375 -1.703125 L 6.984375 -1.703125 C 7.234375 -1.703125 7.441406 -1.613281 7.609375 -1.4375 C 7.785156 -1.269531 7.875 -1.070312 7.875 -0.84375 C 7.875 -0.59375 7.785156 -0.390625 7.609375 -0.234375 C 7.441406 -0.078125 7.234375 0 6.984375 0 L 2.015625 0 C 1.753906 0 1.535156 -0.0820312 1.359375 -0.25 C 1.191406 -0.425781 1.109375 -0.644531 1.109375 -0.90625 L 1.109375 -9.46875 C 1.109375 -9.71875 1.191406 -9.929688 1.359375 -10.109375 C 1.535156 -10.285156 1.753906 -10.375 2.015625 -10.375 Z M 2.015625 -10.375 "/></g></g></g><g fill="#240f00" fill-opacity="1"><g transform="translate(219.799558, 131.774754)"><g><path d="M 2.171875 0 C 1.898438 0 1.65625 -0.0820312 1.4375 -0.25 C 1.21875 -0.425781 1.109375 -0.644531 1.109375 -0.90625 L 1.109375 -9.46875 C 1.109375 -9.71875 1.191406 -9.929688 1.359375 -10.109375 C 1.535156 -10.285156 1.753906 -10.375 2.015625 -10.375 L 6.28125 -10.375 C 6.789062 -10.375 7.269531 -10.234375 7.71875 -9.953125 C 8.175781 -9.679688 8.539062 -9.304688 8.8125 -8.828125 C 9.09375 -8.359375 9.234375 -7.8125 9.234375 -7.1875 C 9.234375 -6.8125 9.15625 -6.441406 9 -6.078125 C 8.84375 -5.722656 8.632812 -5.40625 8.375 -5.125 C 8.113281 -4.84375 7.820312 -4.617188 7.5 -4.453125 L 7.515625 -4.796875 C 7.785156 -4.648438 8.007812 -4.472656 8.1875 -4.265625 C 8.375 -4.066406 8.519531 -3.851562 8.625 -3.625 C 8.726562 -3.394531 8.789062 -3.144531 8.8125 -2.875 C 8.851562 -2.625 8.878906 -2.40625 8.890625 -2.21875 C 8.910156 -2.03125 8.941406 -1.875 8.984375 -1.75 C 9.023438 -1.625 9.113281 -1.523438 9.25 -1.453125 C 9.457031 -1.328125 9.585938 -1.140625 9.640625 -0.890625 C 9.703125 -0.648438 9.648438 -0.4375 9.484375 -0.25 C 9.367188 -0.125 9.226562 -0.0390625 9.0625 0 C 8.894531 0.03125 8.726562 0.03125 8.5625 0 C 8.394531 -0.0390625 8.253906 -0.0859375 8.140625 -0.140625 C 7.972656 -0.242188 7.804688 -0.390625 7.640625 -0.578125 C 7.472656 -0.773438 7.335938 -1.035156 7.234375 -1.359375 C 7.128906 -1.679688 7.078125 -2.101562 7.078125 -2.625 C 7.078125 -2.789062 7.046875 -2.941406 6.984375 -3.078125 C 6.929688 -3.222656 6.847656 -3.347656 6.734375 -3.453125 C 6.628906 -3.554688 6.492188 -3.632812 6.328125 -3.6875 C 6.160156 -3.75 5.960938 -3.78125 5.734375 -3.78125 L 2.734375 -3.78125 L 2.96875 -4.125 L 2.96875 -0.90625 C 2.96875 -0.644531 2.894531 -0.425781 2.75 -0.25 C 2.613281 -0.0820312 2.421875 0 2.171875 0 Z M 2.75 -5.296875 L 6.203125 -5.296875 C 6.378906 -5.296875 6.550781 -5.378906 6.71875 -5.546875 C 6.894531 -5.710938 7.035156 -5.9375 7.140625 -6.21875 C 7.242188 -6.5 7.296875 -6.804688 7.296875 -7.140625 C 7.296875 -7.578125 7.179688 -7.941406 6.953125 -8.234375 C 6.722656 -8.523438 6.472656 -8.671875 6.203125 -8.671875 L 2.78125 -8.671875 L 2.96875 -9.140625 L 2.96875 -4.953125 Z M 2.75 -5.296875 "/></g></g></g><g fill="#240f00" fill-opacity="1"><g transform="translate(229.975259, 131.774754)"><g><path d="M 4.4375 0.140625 C 3.75 0.140625 3.128906 0.0546875 2.578125 -0.109375 C 2.023438 -0.285156 1.5 -0.585938 1 -1.015625 C 0.863281 -1.128906 0.757812 -1.253906 0.6875 -1.390625 C 0.625 -1.523438 0.59375 -1.664062 0.59375 -1.8125 C 0.59375 -2.03125 0.671875 -2.226562 0.828125 -2.40625 C 0.992188 -2.582031 1.203125 -2.671875 1.453125 -2.671875 C 1.640625 -2.671875 1.804688 -2.609375 1.953125 -2.484375 C 2.328125 -2.179688 2.695312 -1.953125 3.0625 -1.796875 C 3.4375 -1.640625 3.894531 -1.5625 4.4375 -1.5625 C 4.800781 -1.5625 5.132812 -1.613281 5.4375 -1.71875 C 5.75 -1.832031 6 -1.984375 6.1875 -2.171875 C 6.375 -2.367188 6.46875 -2.59375 6.46875 -2.84375 C 6.46875 -3.132812 6.378906 -3.382812 6.203125 -3.59375 C 6.023438 -3.800781 5.753906 -3.976562 5.390625 -4.125 C 5.023438 -4.269531 4.5625 -4.378906 4 -4.453125 C 3.46875 -4.535156 3 -4.65625 2.59375 -4.8125 C 2.1875 -4.976562 1.847656 -5.1875 1.578125 -5.4375 C 1.304688 -5.695312 1.097656 -5.992188 0.953125 -6.328125 C 0.816406 -6.671875 0.75 -7.054688 0.75 -7.484375 C 0.75 -8.117188 0.914062 -8.664062 1.25 -9.125 C 1.582031 -9.582031 2.03125 -9.925781 2.59375 -10.15625 C 3.15625 -10.394531 3.773438 -10.515625 4.453125 -10.515625 C 5.097656 -10.515625 5.691406 -10.414062 6.234375 -10.21875 C 6.785156 -10.03125 7.234375 -9.789062 7.578125 -9.5 C 7.867188 -9.269531 8.015625 -9.003906 8.015625 -8.703125 C 8.015625 -8.492188 7.929688 -8.296875 7.765625 -8.109375 C 7.597656 -7.929688 7.398438 -7.84375 7.171875 -7.84375 C 7.023438 -7.84375 6.890625 -7.890625 6.765625 -7.984375 C 6.609375 -8.117188 6.394531 -8.25 6.125 -8.375 C 5.863281 -8.5 5.582031 -8.601562 5.28125 -8.6875 C 4.988281 -8.769531 4.710938 -8.8125 4.453125 -8.8125 C 4.035156 -8.8125 3.679688 -8.753906 3.390625 -8.640625 C 3.097656 -8.535156 2.875 -8.390625 2.71875 -8.203125 C 2.570312 -8.015625 2.5 -7.796875 2.5 -7.546875 C 2.5 -7.253906 2.582031 -7.007812 2.75 -6.8125 C 2.925781 -6.625 3.175781 -6.472656 3.5 -6.359375 C 3.832031 -6.242188 4.226562 -6.144531 4.6875 -6.0625 C 5.269531 -5.945312 5.785156 -5.816406 6.234375 -5.671875 C 6.691406 -5.523438 7.066406 -5.332031 7.359375 -5.09375 C 7.660156 -4.863281 7.882812 -4.570312 8.03125 -4.21875 C 8.175781 -3.875 8.25 -3.453125 8.25 -2.953125 C 8.25 -2.304688 8.070312 -1.75 7.71875 -1.28125 C 7.363281 -0.820312 6.894531 -0.46875 6.3125 -0.21875 C 5.738281 0.0195312 5.113281 0.140625 4.4375 0.140625 Z M 4.4375 0.140625 "/></g></g></g></svg>